<?xml version="1.0" encoding="utf-8"?>
<!-- Svg Vector Icons : http://www.onlinewebfonts.com/icon -->
<!DOCTYPE svg PUBLIC "-//W3C//DTD SVG 1.1//EN" "http://www.w3.org/Graphics/SVG/1.1/DTD/svg11.dtd">
<svg version="1.1" xmlns="http://www.w3.org/2000/svg" xmlns:xlink="http://www.w3.org/1999/xlink" x="0px" y="0px" viewBox="0 0 1000 1000" enable-background="new 0 0 1000 1000" xml:space="preserve" style="fill: #FF8A85;">
<metadata> Svg Vector Icons : http://www.onlinewebfonts.com/icon </metadata>
<g><path d="M664.5,363.7c-10.8,0-19.4-8.8-19.4-19.4v-48.6h-301v48.6c0,10.8-8.8,19.4-19.4,19.4c-10.5,0-19.4-8.8-19.4-19.4v-48.6H256c-15.7,0-28.5,12.8-28.5,28.5v61.8h544.1v-61.8c0-15.7-12.8-28.5-28.5-28.5h-58.9v48.6C683.9,354.9,675.3,363.7,664.5,363.7z"/><path d="M227.3,752.8c0,15.7,12.8,28.5,28.5,28.5h486.9c15.7,0,28.5-12.8,28.5-28.5V405.4H227.3V752.8z M524.2,726.8c0,0-9.8,0-21.8,0h-17.7c-12,0-21.8,0-21.8,0v-39.2v-21.8h61.3c0,0,0,9.8,0,21.8V726.8z M677.2,726.8c0,0-10.1,0-22.1,0h-17.4c-12,0-21.6,0-21.6,0v-61.3c0,0,9.6,0,21.6,0h17.4c12,0,22.1,0,22.1,0V726.8z M598.7,472.9l7.6-7.9c1-1,2.5-1.7,3.9-1.7c1.5,0,2.9,0.5,3.9,1.5l12,11c1,1,4.7,5.4,7.4,5.4s16.9-15,23.3-21.6l29.2-32.9c1-1,1.7-1.7,3.2-1.7c1.5,0,3.4,0.5,4.4,1.5l9.3,9.1c1,1,1.7,2.2,1.7,3.7c0,1.5-0.5,2.9-1.5,3.9l-53,54.7l0,0L639,509.7c-1,1-2.2,1.7-3.9,1.7c-1.5,0-2.9-0.5-3.9-1.5L599,480.5c-1-1-1.7-2.2-1.7-3.7C597.3,475.1,597.8,473.9,598.7,472.9z M597.3,582.3l7.6-7.9c1-1,2.5-1.7,3.9-1.7s2.9,0.5,3.9,1.5l12,11c1,1,4.7,5.4,7.4,5.4c2.7,0,16.9-15,23.3-21.6l29.2-33.1c1-1,1.7-1.7,3.2-1.7c1.5,0,3.4,0.5,4.4,1.5l9.3,9.1c1,1,1.7,2.2,1.7,3.7c0,1.5-0.5,2.9-1.5,3.9l-53,54.7l0,0l-11.3,11.8c-1,1-2.2,1.7-3.9,1.7c-1.5,0-2.9-0.5-3.9-1.5l-32.1-29.4c-1-1-1.7-2.2-1.7-3.7C595.5,584.5,596.3,583.3,597.3,582.3z M450.8,472.9l7.6-7.9c1-1,2.5-1.7,3.9-1.7s2.9,0.5,3.9,1.5l12,11c1,1,4.7,5.4,7.4,5.4c2.7,0,16.9-15,23.3-21.6l29.2-32.9c1-1,1.7-1.7,3.2-1.7c1.5,0,3.4,0.5,4.7,1.5l9.3,9.1c1,1,1.7,2.2,1.7,3.7c0,1.5-0.5,2.9-1.5,3.9l-53,54.7l0,0l-11.3,11.8c-1,1-2.2,1.7-3.9,1.7c-1.5,0-2.9-0.5-3.9-1.5l-32.1-29.4c-1-1-1.7-2.2-1.7-3.7C449.3,475.3,449.8,473.9,450.8,472.9z M449.3,582.1l7.6-7.9c1-1,2.2-1.7,3.9-1.7c1.5,0,2.9,0.5,3.9,1.5l12,11c1,1,4.7,5.4,7.4,5.4c2.7,0,16.9-15,23.3-21.6l29.2-32.9c1-1,1.7-1.7,3.2-1.7c1.5,0,3.4,0.5,4.4,1.5l9.3,9.1c1,1,1.7,2.2,1.7,3.7c0,1.5-0.5,2.9-1.5,3.9l-53,54.7l0,0l-11.3,11.8c-1,1-2.2,1.7-3.9,1.7c-1.5,0-2.9-0.5-3.9-1.5l-32.1-29.4c-1-1-1.7-2.2-1.7-3.7C447.6,584.5,448.4,583,449.3,582.1z M297.3,472.9l7.4-7.9c1-1,2.5-1.7,3.9-1.7c1.5,0,2.9,0.5,3.9,1.5l12,11c1,1,4.7,5.4,7.4,5.4c2.7,0,16.9-15,23.1-21.6l29.2-32.9c1-1,1.7-1.7,3.2-1.7s3.4,0.5,4.4,1.5l9.3,9.1c1,1,1.7,2.2,1.7,3.7c0,1.5-0.5,2.9-1.5,3.9l-53,54.7l0,0L337,509.7c-1,1-2.2,1.7-3.9,1.7c-1.5,0-2.9-0.5-3.9-1.5L297,480.5c-1-1-1.7-2.2-1.7-3.7C295.8,475.3,296.3,473.9,297.3,472.9z M295.8,582.1l7.4-7.9c1-1,2.5-1.7,3.9-1.7c1.5,0,2.9,0.5,3.9,1.5l12,11c1,1,4.7,5.4,7.4,5.4c2.7,0,16.9-15,23.1-21.6l29.2-32.9c1-1,1.7-1.7,3.2-1.7c1.5,0,3.4,0.5,4.7,1.5l9.3,9.1c1,1,1.7,2.2,1.7,3.7c0,1.5-0.5,2.9-1.5,3.9l-53,54.7l0,0l-11.3,11.8c-1,1-2.2,1.7-3.9,1.7c-1.5,0-2.9-0.5-3.9-1.5l-32.1-29.4c-1-1-1.7-2.2-1.7-3.7C294.3,584.5,294.8,583,295.8,582.1z M295.8,692l7.6-7.8c1-1,2.5-1.7,3.9-1.7c1.5,0,2.9,0.5,3.9,1.5l12,11c1,1,4.7,5.4,7.4,5.4c2.7,0,16.9-15,23.3-21.6l29.2-32.9c1-1,1.7-1.7,3.2-1.7c1.5,0,3.4,0.5,4.4,1.5l9.3,9.1c1,1,1.7,2.2,1.7,3.7s-0.5,2.7-1.5,3.9l-53,54.7l0,0L336,728.7c-1,1-2.2,1.7-3.9,1.7c-1.5,0-2.9-0.5-3.9-1.5L296,699.6c-1-1-1.7-2.2-1.7-3.7C294.1,694.4,294.8,692.9,295.8,692z"/><path d="M836.2,10H163.8C78.7,10,10,78.9,10,163.8v672.4C10,921.3,78.9,990,163.8,990h672.4c85.1,0,153.8-68.9,153.8-153.8V164.1C990,78.9,921.1,10,836.2,10z M810.2,752.8c0,37.3-30.2,67.2-67.2,67.2H255.8c-37.3,0-67.2-30.2-67.2-67.2V324.2c0-37.3,30.2-67.2,67.2-67.2h49.3v-58.4c0-10.8,8.8-19.4,19.4-19.4s19.4,8.8,19.4,19.4v58.1h301v-58.4c0-10.8,8.8-19.4,19.4-19.4s19.4,8.8,19.4,19.4v58.4h58.9c37.3,0,67.2,30.2,67.2,67.2v428.8H810.2z"/><path d="M305.1,256.8h39v38.8h-39V256.8z"/><path d="M645.1,256.8h38.8v38.8h-38.8V256.8z"/><path d="M788.8,405.4c5.4,0,9.8-4.4,9.8-9.8c0-5.4-4.4-9.8-9.8-9.8h-17.4v19.4h17.4V405.4z"/><path d="M206,386.1c-5.4,0-9.8,4.4-9.8,9.8c0,5.4,4.4,9.8,9.8,9.8h21.3v-19.4H206V386.1z"/></g>
</svg>